<?xml version="1.0" encoding="UTF-8"?>
<svg id="Layer_2" data-name="Layer 2" xmlns="http://www.w3.org/2000/svg" viewBox="0 0 229.72 55.91">
  <g id="Layer_1-2" data-name="Layer 1">
    <g>
      <g>
        <path d="M47.34,31.23c2.03.49,3.08,1.22,3.08,2.82,0,1.81-1.41,2.88-3.42,2.88-1.47,0-2.85-.51-4-1.53l1.01-1.21c.92.79,1.83,1.25,3.02,1.25,1.04,0,1.7-.48,1.7-1.22,0-.7-.39-1.07-2.16-1.48-2.04-.49-3.19-1.09-3.19-2.87,0-1.67,1.37-2.79,3.27-2.79,1.4,0,2.51.42,3.48,1.2l-.9,1.28c-.86-.64-1.72-.99-2.6-.99-.98,0-1.56.51-1.56,1.15,0,.75.44,1.08,2.27,1.52Z"/>
        <path d="M62.04,36.95c-2.79,0-4.87-2.18-4.87-4.94s2.04-4.97,4.94-4.97c1.77,0,2.83.62,3.75,1.49l-1.08,1.25c-.77-.71-1.59-1.19-2.68-1.19-1.83,0-3.16,1.5-3.16,3.39s1.33,3.42,3.16,3.42c1.18,0,1.93-.48,2.75-1.25l1.08,1.09c-1,1.04-2.09,1.7-3.89,1.7Z"/>
        <path d="M79.03,36.78l-2.35-3.34h-2.11v3.34h-1.68v-9.58h4.27c2.2,0,3.56,1.16,3.56,3.04,0,1.59-.95,2.55-2.28,2.91l2.59,3.63h-1.99ZM77.02,28.73h-2.45v3.22h2.47c1.2,0,1.97-.63,1.97-1.61,0-1.05-.74-1.6-1.98-1.6Z"/>
        <path d="M89.75,27.2v9.58h-1.68v-9.58h1.68Z"/>
        <path d="M101.09,33.7h-1.9v3.08h-1.68v-9.58h3.78c2.23,0,3.64,1.26,3.64,3.22,0,2.16-1.72,3.28-3.83,3.28ZM101.14,28.73h-1.96v3.45h1.96c1.27,0,2.07-.7,2.07-1.73,0-1.13-.81-1.72-2.07-1.72Z"/>
        <path d="M115.89,36.78h-1.7v-8.02h-3.04v-1.56h7.77v1.56h-3.04v8.02Z"/>
        <path d="M133.94,32.64c0,2.86-1.62,4.3-4.12,4.3s-4.08-1.44-4.08-4.22v-5.51h1.68v5.45c0,1.78.92,2.74,2.42,2.74s2.41-.9,2.41-2.67v-5.51h1.68v5.43Z"/>
        <path d="M147.59,36.78l-2.35-3.34h-2.11v3.34h-1.68v-9.58h4.27c2.2,0,3.56,1.16,3.56,3.04,0,1.59-.95,2.55-2.28,2.91l2.59,3.63h-1.99ZM145.58,28.73h-2.45v3.22h2.47c1.2,0,1.97-.63,1.97-1.61,0-1.05-.74-1.6-1.98-1.6Z"/>
        <path d="M163.64,28.71h-5.42v2.49h4.8v1.5h-4.8v2.57h5.49v1.51h-7.17v-9.58h7.11v1.5Z"/>
        <path d="M183.89,31.23c2.02.49,3.08,1.22,3.08,2.82,0,1.81-1.41,2.88-3.42,2.88-1.47,0-2.85-.51-4-1.53l1.01-1.21c.92.79,1.83,1.25,3.03,1.25,1.04,0,1.7-.48,1.7-1.22,0-.7-.39-1.07-2.16-1.48-2.04-.49-3.19-1.09-3.19-2.87,0-1.67,1.37-2.79,3.27-2.79,1.4,0,2.51.42,3.48,1.2l-.9,1.28c-.86-.64-1.72-.99-2.6-.99-.98,0-1.56.51-1.56,1.15,0,.75.44,1.08,2.27,1.52Z"/>
        <path d="M203.11,36.78h-1.78l-.97-2.31h-4.53l-.99,2.31h-1.72l4.21-9.65h1.56l4.22,9.65ZM198.09,29.14l-1.64,3.84h3.3l-1.66-3.84Z"/>
        <path d="M212.95,36.78h-1.7v-3.78l-3.81-5.8h1.99l2.68,4.24,2.71-4.24h1.93l-3.8,5.76v3.82Z"/>
        <path d="M226.64,31.23c2.02.49,3.08,1.22,3.08,2.82,0,1.81-1.41,2.88-3.42,2.88-1.47,0-2.85-.51-4-1.53l1.01-1.21c.92.79,1.83,1.25,3.03,1.25,1.04,0,1.7-.48,1.7-1.22,0-.7-.38-1.07-2.16-1.48-2.04-.49-3.19-1.09-3.19-2.87,0-1.67,1.37-2.79,3.27-2.79,1.4,0,2.51.42,3.48,1.2l-.9,1.28c-.86-.64-1.72-.99-2.6-.99-.98,0-1.56.51-1.56,1.15,0,.75.44,1.08,2.27,1.52Z"/>
      </g>
      <path d="M7.48,35.8c-.63.85-1.54,1.61-1.86,2.5-.49.75-.74,1.69-1.03,2.53-.09.93-.31,1.75-.2,2.61-.05.84.27,1.65.43,2.4.39.72.58,1.44,1.1,2.03l.31.46.07.11.02.03h0c.04.07-.34-.51-.17-.26l.02.02.07.07.27.29,1.08,1.15c.64.27.86.46,1.6.72.58.34,1.27.36,1.87.54.66-.04,1.27.07,1.87-.13.62-.01,1.13-.42,1.69-.53.25-.17.49-.32.75-.45l.19-.1.05-.02h.01c.37-.25-.5.32-.4.26h0s.04-.04.04-.04l.15-.12.61-.5.61-.5c.08-.08.25-.18.26-.23l.03-.13c.05-.17.11-.3.22-.4.17-.5.52-.94.57-1.49.21-.5.18-1.04.29-1.55-.09-.52-.02-1.05-.24-1.53-.04-.52-.43-.93-.58-1.42l-.22-.42c-.66-1.36-1.39-2.69-1.99-4.09l-1.88-4.14-1.88-4.14c-.64-1.37-1.24-2.77-1.8-4.18l-1.73-4.21c-.57-1.41-1.17-2.8-1.71-4.22l-1.58-4.28c-.52-1.43-1.07-2.85-1.57-4.29L0,0l7.2,2.84,3.74,1.47c1.24.5,2.5.96,3.73,1.5l3.7,1.6c1.24.52,2.46,1.12,3.68,1.69l1.22.56-.15.81c-.31,1.68-.69,3.36-1.11,5.05l-.02.07c-.04.16-.2.26-.37.22-.14-.03-.23-.16-.23-.29l-.06-5.05.27.35c-5.17-1.26-10.33-2.53-15.47-3.84l.56-.68,7.88,16.39,7.85,16.4-.02-.05c.43,1.02,1.02,1.97,1.18,3.08.33,1.06.29,2.18.32,3.28-.18,1.08-.27,2.2-.73,3.21-.31,1.07-.97,1.96-1.55,2.9-.76.83-1.51,1.73-2.38,2.25l-.64.46-.16.11-.04.03-.07.04h-.02s-.09.05-.09.05l-.38.17-1.5.68c-1.06.24-2.12.61-3.23.55-1.1.12-2.18-.15-3.26-.32-1.02-.39-2.09-.69-2.98-1.33-.97-.49-1.75-1.36-2.55-2.11l-.92-1.27-.23-.32-.06-.08v-.02s-.05-.05-.05-.05h0s-.02-.06-.02-.06l-.08-.19-.34-.75c-.54-.96-.7-2.05-.94-3.12-.03-1.08-.16-2.18.11-3.25.1-1.09.58-2.08.96-3.09.58-.92,1.08-1.88,1.9-2.63.7-.88,1.62-1.36,2.46-2,.13-.1.32-.08.42.05.08.11.08.25,0,.36l-.06.08Z"/>
    </g>
  </g>
</svg>