<svg width="99" height="102" viewBox="0 0 99 102" fill="none" xmlns="http://www.w3.org/2000/svg">
<path d="M56.7969 29.6729C56.7969 20.839 57.9294 14.0437 48.6425 14.0437C48.6425 14.0437 40.0351 14.0437 36.4109 25.3692L19.8757 23.7836C19.8757 12.4581 30.2951 0 50.2281 0C70.161 0 75.8238 12.9111 75.8238 18.8004V52.0974C75.8238 58.2132 83.0721 64.1025 83.0721 64.1025L70.161 76.7871C67.8959 74.522 61.3271 68.4062 59.968 66.1411C49.7751 82.2234 18.2901 81.0908 18.2901 56.4011C18.2901 33.2971 45.6979 30.1259 56.7969 29.6729ZM56.7969 49.3793V40.0924C49.0955 40.3189 37.77 42.584 37.77 53.23C37.77 64.782 56.7969 67.5002 56.7969 49.3793ZM87.6023 86.3005C85.7902 88.5656 71.7466 101.477 47.963 101.477C24.4059 101.477 6.28502 85.3945 0.622258 78.5992C-0.963317 77.0136 0.848768 76.1076 1.98132 76.7871C18.5166 86.9801 44.5653 103.515 86.2433 83.5824C88.0553 82.9029 89.4144 84.0354 87.6023 86.3005ZM96.6628 86.9801C95.0772 90.3777 93.0386 92.8693 91.6795 94.0019C90.547 94.9079 89.6409 94.4549 90.3205 93.0959C91 91.5103 94.6242 82.4499 93.2651 80.6378C91.6795 78.8257 84.8842 79.7317 82.3926 79.9582C79.901 80.1848 79.4479 80.4113 79.2214 79.7317C78.5419 78.5992 83.9782 76.3341 87.6023 75.8811C91.2265 75.428 96.8893 75.6545 98.0218 77.2401C98.9279 78.3727 98.0218 83.3559 96.6628 86.9801Z" fill="black"/>
</svg>
