<?xml version="1.0" encoding="UTF-8"?>
<svg id="Layer_2" data-name="Layer 2" xmlns="http://www.w3.org/2000/svg" viewBox="0 0 19.91 46.57">
  <defs>
    <style>
      .cls-1 {
        fill: #414042;
      }
    </style>
  </defs>
  <g id="Layer_1-2" data-name="Layer 1">
    <path class="cls-1" d="M6.23,29.82c-.52.71-1.28,1.34-1.55,2.08-.41.62-.61,1.41-.86,2.11-.07.77-.25,1.46-.17,2.18-.04.7.22,1.37.36,2,.33.6.49,1.2.91,1.69l.26.38.06.1.02.02h0c.03.06-.28-.43-.14-.22v.02s.07.06.07.06l.23.24.9.96c.54.22.72.38,1.33.6.48.28,1.06.3,1.56.45.55-.04,1.06.06,1.56-.11.51-.01.94-.35,1.41-.44.21-.14.41-.27.62-.38l.16-.08.04-.02h0c.31-.21-.41.27-.34.22h0s.03-.03.03-.03l.13-.1.51-.41.5-.41c.07-.06.21-.15.22-.19l.03-.11c.04-.14.09-.25.18-.33.14-.41.43-.79.47-1.24.17-.41.15-.86.24-1.29-.08-.43-.02-.87-.2-1.27-.04-.44-.36-.77-.48-1.18l-.18-.35c-.55-1.14-1.16-2.24-1.66-3.4l-1.56-3.45-1.57-3.45c-.54-1.14-1.03-2.3-1.5-3.48l-1.44-3.51c-.47-1.17-.98-2.33-1.42-3.52l-1.32-3.57c-.43-1.19-.89-2.37-1.31-3.57L0,0l5.99,2.36,3.11,1.23c1.04.42,2.08.8,3.11,1.25l3.08,1.34c1.03.43,2.05.94,3.07,1.41l1.01.47-.12.67c-.26,1.4-.58,2.8-.93,4.2l-.02.06c-.03.14-.17.22-.3.18-.11-.03-.19-.13-.19-.24l-.05-4.2.23.29c-4.3-1.05-8.6-2.1-12.89-3.2l.47-.57,6.56,13.65,6.54,13.66-.02-.04c.36.85.85,1.64.98,2.57.28.89.24,1.81.27,2.73-.15.9-.22,1.83-.61,2.67-.25.89-.81,1.64-1.29,2.42-.63.69-1.25,1.44-1.98,1.88l-.53.38-.13.1-.03.03-.05.03h-.02s-.08.05-.08.05l-.31.14-1.25.57c-.89.2-1.77.51-2.69.46-.92.1-1.81-.12-2.71-.26-.85-.32-1.74-.57-2.49-1.11-.81-.41-1.46-1.13-2.12-1.75l-.77-1.06-.19-.27-.05-.07v-.02s-.04-.04-.04-.04h0s-.02-.05-.02-.05l-.07-.16-.28-.62c-.45-.8-.59-1.71-.78-2.6-.02-.9-.13-1.82.09-2.7.08-.91.48-1.74.8-2.57.48-.76.9-1.57,1.58-2.19.59-.74,1.35-1.13,2.05-1.66.11-.08.26-.06.35.04.07.09.07.21,0,.3l-.05.07Z"/>
  </g>
</svg>