<svg width="102" height="102" viewBox="0 0 102 102" fill="none" xmlns="http://www.w3.org/2000/svg">
<path d="M50.8516 24.5764C65.1218 24.5764 76.9003 36.355 76.9003 50.6251C76.9003 65.1218 65.1218 76.6738 50.8516 76.6738C36.355 76.6738 24.8029 65.1218 24.8029 50.6251C24.8029 36.355 36.355 24.5764 50.8516 24.5764ZM50.8516 67.6134C60.1386 67.6134 67.6134 60.1386 67.6134 50.6251C67.6134 41.3382 60.1386 33.8633 50.8516 33.8633C41.3382 33.8633 33.8633 41.3382 33.8633 50.6251C33.8633 60.1386 41.5647 67.6134 50.8516 67.6134ZM83.9222 23.6704C83.9222 27.068 81.204 29.7861 77.8064 29.7861C74.4087 29.7861 71.6906 27.068 71.6906 23.6704C71.6906 20.2727 74.4087 17.5546 77.8064 17.5546C81.204 17.5546 83.9222 20.2727 83.9222 23.6704ZM101.137 29.7861C101.59 38.167 101.59 63.3097 101.137 71.6906C100.684 79.845 98.8719 86.8668 92.9826 92.9826C87.0933 98.8719 79.845 100.684 71.6906 101.137C63.3097 101.59 38.167 101.59 29.7861 101.137C21.6318 100.684 14.6099 98.8719 8.49415 92.9826C2.60487 86.8668 0.792787 79.845 0.339766 71.6906C-0.113255 63.3097 -0.113255 38.167 0.339766 29.7861C0.792787 21.6318 2.60487 14.3834 8.49415 8.49415C14.6099 2.60487 21.6318 0.792787 29.7861 0.339766C38.167 -0.113255 63.3097 -0.113255 71.6906 0.339766C79.845 0.792787 87.0933 2.60487 92.9826 8.49415C98.8719 14.3834 100.684 21.6318 101.137 29.7861ZM90.2645 80.5245C92.9826 73.9557 92.3031 58.1 92.3031 50.6251C92.3031 43.3768 92.9826 27.521 90.2645 20.7257C88.4524 16.422 85.0547 12.7978 80.751 11.2123C73.9557 8.49415 58.1 9.17368 50.8516 9.17368C43.3768 9.17368 27.521 8.49415 20.9522 11.2123C16.422 13.0244 13.0244 16.422 11.2123 20.7257C8.49415 27.521 9.17368 43.3768 9.17368 50.6251C9.17368 58.1 8.49415 73.9557 11.2123 80.5245C13.0244 85.0547 16.422 88.4524 20.9522 90.2645C27.521 92.9826 43.3768 92.3031 50.8516 92.3031C58.1 92.3031 73.9557 92.9826 80.751 90.2645C85.0547 88.4524 88.6789 85.0547 90.2645 80.5245Z" fill="black"/>
</svg>
