<svg width="102" height="102" viewBox="0 0 102 102" fill="none" xmlns="http://www.w3.org/2000/svg">
<path d="M50.5119 11.099C72.0304 11.099 89.2452 28.3138 89.2452 49.8323C89.2452 71.3508 72.0304 88.5656 50.5119 88.5656C29.2199 88.5656 11.7786 71.1243 11.7786 49.8323C11.7786 28.3138 29.2199 11.099 50.5119 11.099ZM68.6327 65.4616C68.8592 64.1025 68.6327 66.1411 68.8592 27.4078C68.8592 26.0487 67.9532 25.3692 66.8206 25.3692C66.3676 25.3692 63.423 26.0487 40.5454 30.3524C40.5454 30.3524 39.6394 30.5789 39.1863 31.032C38.7333 31.2585 38.5068 31.7115 38.2803 32.391C38.0538 33.9766 38.9598 61.3844 37.8273 62.7434C37.3742 63.1965 36.6947 63.423 36.0152 63.423C31.938 64.329 29.2199 64.5555 27.4078 66.3676C24.0101 69.5388 25.8222 75.2015 30.5789 76.1076C32.391 76.3341 35.7887 75.881 37.8273 74.975C39.4128 74.069 40.7719 72.4834 41.2249 70.4448C41.4514 68.8592 41.4514 69.9918 41.4514 43.7165C41.4514 42.3575 41.9045 42.131 43.037 41.678C43.037 41.678 62.7434 38.0538 63.6495 37.8273C65.0085 37.6008 65.6881 38.0538 65.6881 39.1863C65.6881 57.0807 65.9146 56.8542 65.2351 57.5337C64.782 58.2132 64.1025 58.2132 63.423 58.4397C59.3458 59.1193 56.6276 59.5723 54.8156 61.3844C52.3239 63.6495 52.5505 67.5002 55.0421 69.7653C57.3072 71.3508 59.5723 71.3508 62.2904 70.8978C65.4616 70.2183 67.7267 68.4062 68.6327 65.4616ZM78.1462 0C91.0573 0 101.477 10.4195 101.477 23.3306V78.3727C101.477 91.2838 91.0573 101.477 78.1462 101.477H23.1041C10.193 101.477 0 91.2838 0 78.3727V23.3306C0 10.4195 10.193 0 23.1041 0H78.1462ZM50.5119 93.3224C74.522 93.3224 94.2284 73.8425 94.2284 49.8323C94.2284 25.8222 74.522 6.11579 50.5119 6.11579C26.5017 6.11579 7.02183 25.8222 7.02183 49.8323C7.02183 73.8425 26.5017 93.3224 50.5119 93.3224Z" fill="black"/>
</svg>
