<svg width="113" height="113" viewBox="0 0 113 113" fill="none" xmlns="http://www.w3.org/2000/svg">
<path d="M56.1746 0C86.9801 0 112.349 25.3692 112.349 56.1746C112.349 87.2066 86.9801 112.349 56.1746 112.349C25.1427 112.349 0 87.2066 0 56.1746C0 25.3692 25.1427 0 56.1746 0ZM78.8257 82.6764C80.6378 82.6764 82.2234 81.3173 82.2234 79.2787C82.2234 77.2401 81.5438 76.3341 80.1848 75.428C63.876 65.9146 45.0756 65.4616 26.5017 69.5388C24.6897 69.9918 23.3306 71.1243 23.3306 73.3894C23.3306 75.2015 24.6897 77.0136 26.9548 77.0136C27.6343 77.0136 28.7668 76.5606 29.6729 76.3341C45.9817 73.1629 62.2904 73.3894 76.5606 81.9968C77.2401 82.4499 77.9196 82.6764 78.8257 82.6764ZM84.9415 67.9532C87.4331 67.9532 89.2452 65.9146 89.4717 63.423C89.4717 61.6109 88.5656 60.0253 86.7536 59.1193C75.6545 52.3239 61.3844 48.6998 46.6612 48.6998C37.3742 48.6998 30.8054 50.0588 24.4631 51.8709C22.198 52.5505 21.0655 54.136 21.0655 56.4011C21.0655 58.8928 23.1041 60.9314 25.3692 60.9314C26.5017 60.9314 26.9548 60.4783 28.0873 60.2518C46.8877 55.2686 67.9532 58.6662 82.2234 67.0471C82.9029 67.2736 83.8089 67.9532 84.9415 67.9532ZM91.9633 50.7384C94.6814 50.7384 97.173 48.4733 97.173 45.3021C97.173 42.584 96.0405 41.2249 94.2284 40.3189C81.7703 32.844 64.329 29.4464 47.7937 29.4464C38.0538 29.4464 29.2199 30.5789 21.292 32.844C19.2534 33.5236 17.2148 35.1091 17.2148 38.2803C17.2148 41.2249 19.4799 43.7165 22.4245 43.7165C23.5571 43.7165 24.6897 43.2635 25.3692 43.037C44.1696 37.8273 72.9364 40.0924 89.0187 49.8323C90.1512 50.2854 90.8307 50.7384 91.9633 50.7384Z" fill="black"/>
</svg>
