<svg width="124" height="87" viewBox="0 0 124 87" fill="none" xmlns="http://www.w3.org/2000/svg">
<path d="M121.183 13.8171C123.901 23.3306 123.901 43.7165 123.901 43.7165C123.901 43.7165 123.901 63.876 121.183 73.6159C119.824 79.0522 115.52 83.1294 110.311 84.4885C100.571 86.9801 62.0639 86.9801 62.0639 86.9801C62.0639 86.9801 23.3306 86.9801 13.5906 84.4885C8.38089 83.1294 4.07719 79.0522 2.71813 73.6159C0 63.876 0 43.7165 0 43.7165C0 43.7165 0 23.3306 2.71813 13.8171C4.07719 8.38089 8.38089 4.07719 13.5906 2.71813C23.3306 0 62.0639 0 62.0639 0C62.0639 0 100.571 0 110.311 2.71813C115.52 4.07719 119.824 8.38089 121.183 13.8171ZM49.3793 62.0639L81.5438 43.7165L49.3793 25.3692V62.0639Z" fill="black"/>
</svg>
